<svg xmlns="http://www.w3.org/2000/svg" xmlns:xlink="http://www.w3.org/1999/xlink" version="1.1" width="595.276" height="841.89" viewBox="0 0 595.276 841.89">
<defs>
<clipPath id="clip_0">
<path transform="matrix(1,0,0,-1,0,841.89)" d="M0 841.89H595.276V0H0Z"/>
</clipPath>
</defs>
<g id="layer_1" data-name="Layer 1">
<g clip-path="url(#clip_0)">
<path transform="matrix(1,0,0,-1,212.7139,287.70429)" d="M0 0C-54.574-37.263-82.396-106.185-64.325-173.633-41.443-259.025 46.324-309.695 131.712-286.816 201.485-268.12 248.07-206.109 250.3-137.473 240.644-193.802 199.289-242.193 140.461-257.956 59.872-279.551-22.959-231.727-44.551-151.141-59.72-94.533-40.638-36.819 0 0" fill="#2e3691" fill-rule="evenodd"/>
<path transform="matrix(1,0,0,-1,391.6025,508.5354)" d="M0 0C46.049 31.444 69.527 89.6 54.277 146.517 34.969 218.571-39.092 261.331-111.146 242.022-170.02 226.248-209.329 173.922-211.209 116.003-203.063 163.537-168.168 204.371-118.527 217.67-50.523 235.892 19.372 195.539 37.593 127.536 50.391 79.769 34.289 31.068 0 0" fill="#ed2127" fill-rule="evenodd"/>
<path transform="matrix(1,0,0,-1,381.9268,347.75123)" d="M0 0V0C-2.028 2.313-5.803 2.612-8.122 .575L-80.16-59.552H-61.582L-.872-8.428C1.741-6.4 2.048-2.62 0 0" fill="#ed2127" fill-rule="evenodd"/>
<path transform="matrix(1,0,0,-1,318.5723,366.9729)" d="M0 0V0C1.686 2.523 .843 6.171-1.69 7.852-4.205 9.535-7.854 8.971-9.55 6.171L-39.548-39.284H-25.81Z" fill="#ed2127" fill-rule="evenodd"/>
<path transform="matrix(1,0,0,-1,253.4839,507.25413)" d="M0 0V0-14.593C0-18.51 3.083-21.883 7.294-21.883H61.44C65.088-21.883 68.448-18.51 68.448-14.593V0C57.792-3.927 46.292-5.887 34.227-5.887 22.165-5.887 10.658-3.927 0 0" fill="#2e3691" fill-rule="evenodd"/>
<path transform="matrix(1,0,0,-1,202.7021,417.47343)" d="M0 0H170.011C170.011-47.128 132.144-85.292 85.009-85.292 37.879-85.292 0-47.128 0 0" fill="#2e3691" fill-rule="evenodd"/>
<path transform="matrix(1,0,0,-1,266.439,452.95533)" d="M0 0H2.181C7.143 0 12.105 .03 17.066-.026 17.993-.036 18.339 .283 18.602 1.113 20.213 6.186 21.875 11.242 23.524 16.303 23.633 16.637 23.775 16.961 24.004 17.557 24.994 14.536 25.898 11.782 26.797 9.026 27.656 6.391 28.542 3.764 29.344 1.11 29.599 .268 29.953-.034 30.876-.025 36.54 .026 42.204 0 48.227 0 47.676-.424 47.365-.677 47.041-.912 42.788-4 38.545-7.104 34.266-10.154 33.526-10.683 33.321-11.116 33.629-12.029 35.32-17.037 36.928-22.072 38.561-27.099 38.684-27.477 38.772-27.865 38.943-28.496 36.744-26.905 34.745-25.461 32.748-24.014 30.23-22.189 27.678-20.41 25.215-18.516 24.306-17.816 23.713-17.772 22.762-18.484 18.615-21.59 14.396-24.6 10.202-27.642 9.875-27.879 9.538-28.103 8.996-28.478 9.159-27.892 9.246-27.519 9.364-27.156 11.013-22.096 12.636-17.026 14.343-11.984 14.645-11.093 14.421-10.693 13.72-10.192 9.115-6.901 4.542-3.565-.041-.244-.027-.163-.014-.081 0 0" fill="#ffffff"/>
</g>
</g>
</svg>
